HIERARCHY
ROOT Hips
{
    OFFSET 0.000000 0.000000 0.000000
    CHANNELS 6 Xposition Yposition Zposition Zrotation Xrotation Yrotation
    JOINT Spine
    {
        OFFSET -0.000000 14.517291 0.000000
        CHANNELS 3 Zrotation Xrotation Yrotation
        JOINT Spine1
        {
            OFFSET -0.000000 37.558300 0.000000
            CHANNELS 3 Zrotation Xrotation Yrotation
            JOINT Neck
            {
                OFFSET -0.000000 37.404057 3.400369
                CHANNELS 3 Zrotation Xrotation Yrotation
                JOINT Head
                {
                    OFFSET -0.000000 24.785618 -3.540803
                    CHANNELS 3 Zrotation Xrotation Yrotation
                    End Site
                    {
                        OFFSET -0.000000 35.408028 0.000000
                    }
                }
            }
            JOINT LeftShoulder
            {
                OFFSET 6.992933 33.973492 -0.192664
                CHANNELS 3 Zrotation Xrotation Yrotation
                JOINT LeftArm
                {
                    OFFSET 21.527611 0.000000 0.000000
                    CHANNELS 3 Zrotation Xrotation Yrotation
                    JOINT LeftForeArm
                    {
                        OFFSET 56.353916 0.000000 0.000000
                        CHANNELS 3 Zrotation Xrotation Yrotation
                        JOINT LeftHand
                        {
                            OFFSET 47.774071 0.000000 0.000000
                            CHANNELS 3 Zrotation Xrotation Yrotation
                            End Site
                            {
                                OFFSET 26.556021 0.000000 0.000000
                            }
                        }
                    }
                }
            }
            JOINT RightShoulder
            {
                OFFSET -7.065357 33.973492 -0.192664
                CHANNELS 3 Zrotation Xrotation Yrotation
                JOINT RightArm
                {
                    OFFSET -21.527611 0.000000 0.000000
                    CHANNELS 3 Zrotation Xrotation Yrotation
                    JOINT RightForeArm
                    {
                        OFFSET -56.353916 0.000000 0.000000
                        CHANNELS 3 Zrotation Xrotation Yrotation
                        JOINT RightHand
                        {
                            OFFSET -47.774071 0.000000 0.000000
                            CHANNELS 3 Zrotation Xrotation Yrotation
                            End Site
                            {
                                OFFSET -26.556021 0.000000 0.000000
                            }
                        }
                    }
                }
            }
        }
    }
    JOINT LeftUpLeg
    {
        OFFSET 17.704014 0.000000 0.000000
        CHANNELS 3 Zrotation Xrotation Yrotation
        JOINT LeftLeg
        {
            OFFSET -0.000000 -81.181816 0.000000
            CHANNELS 3 Zrotation Xrotation Yrotation
            JOINT LeftFoot
            {
                OFFSET -0.000000 -62.821102 0.000000
                CHANNELS 3 Zrotation Xrotation Yrotation
                JOINT LeftToeBase
                {
                    OFFSET -0.000000 -11.507608 26.556021
                    CHANNELS 3 Zrotation Xrotation Yrotation
                    End Site
                    {
                        OFFSET -0.000000 0.000000 7.081605
                    }
                }
            }
        }
    }
    JOINT RightUpLeg
    {
        OFFSET -17.704014 0.000000 0.000000
        CHANNELS 3 Zrotation Xrotation Yrotation
        JOINT RightLeg
        {
            OFFSET -0.000000 -81.181816 0.000000
            CHANNELS 3 Zrotation Xrotation Yrotation
            JOINT RightFoot
            {
                OFFSET -0.000000 -62.821102 0.000000
                CHANNELS 3 Zrotation Xrotation Yrotation
                JOINT RightToeBase
                {
                    OFFSET -0.000000 -11.507608 26.556021
                    CHANNELS 3 Zrotation Xrotation Yrotation
                    End Site
                    {
                        OFFSET -0.000000 0.000000 7.081605
                    }
                }
            }
        }
    }
}
MOTION
Frames:    10
Frame Time:    0.008333
12.802657    153.588226    -116.523003    -1.329660    -6.560951    43.224407    -0.413188    -0.152176    -2.886672    -5.310233    2.660152    -0.838603    13.494789    -5.229126    -5.268167    5.610227    8.329461    -7.738514    9.706665    6.196881    -23.704350    -25.545961    20.652390    -67.913010    -16.758385    -1.846337    -86.613922    17.164438    -18.343437    -5.339853    -12.928230    -6.111763    -3.037418    24.152279    -24.351170    64.164619    -9.363742    -10.195093    47.208385    -9.471690    -8.597363    29.310421    4.355906    -10.003429    -4.651484    -17.261436    43.448032    -16.730640    20.927139    -22.721397    48.213188    0.000000    0.000000    0.000000    -9.673538    -34.503273    -9.336982    9.955098    18.647097    -15.446275    11.670906    29.157803    -16.624975    0.000000    0.000000    0.000000    
12.641008    153.695328    -116.666641    -1.363400    -6.629633    43.135544    -0.369809    -0.163782    -2.828185    -5.289139    2.620499    -0.821432    13.475959    -5.248209    -5.253756    5.645564    8.445712    -7.725369    9.685866    6.184832    -23.688753    -25.600679    20.615877    -67.830544    -16.823147    -1.682267    -86.637512    17.123102    -18.263870    -5.420970    -12.913240    -6.010471    -3.020979    24.156263    -24.427605    64.176369    -9.399127    -10.054809    47.182320    -9.534042    -8.454823    29.253559    4.408627    -9.991153    -4.675403    -17.190096    43.310856    -16.764149    20.855839    -22.592772    48.234604    0.000000    0.000000    0.000000    -10.036215    -34.308212    -9.570641    9.977943    18.903484    -15.563637    11.190933    29.013268    -16.754251    0.000000    0.000000    0.000000    
12.473737    153.798431    -116.792320    -1.393459    -6.698186    43.056988    -0.357049    -0.199834    -2.781818    -5.240028    2.623877    -0.806961    13.476587    -5.236245    -5.249939    5.631170    8.502430    -7.723910    9.662914    6.165680    -23.667236    -25.539774    20.654541    -67.790268    -16.779474    -1.711511    -86.677994    16.975414    -18.257441    -5.438717    -12.922067    -6.048043    -3.000518    24.110058    -24.370489    64.122643    -9.370325    -10.083919    47.165024    -9.598405    -8.523617    29.350063    4.472230    -9.970788    -4.716290    -17.131174    43.163166    -16.816402    20.797785    -22.455538    48.260811    0.000000    0.000000    0.000000    -10.394190    -34.087383    -9.781628    10.003527    19.141937    -15.796682    10.766178    28.831539    -16.823423    0.000000    0.000000    0.000000    
12.313231    153.897598    -116.925140    -1.439767    -6.746323    42.983360    -0.292530    -0.227930    -2.744436    -5.275497    2.579585    -0.795743    13.503376    -5.224484    -5.231798    5.645504    8.565230    -7.711057    9.692263    6.151099    -23.649582    -25.559690    20.655727    -67.721436    -16.789871    -1.641182    -86.743996    17.089376    -18.208164    -5.331812    -12.894560    -6.042878    -2.982508    23.992033    -24.257093    64.002525    -9.583176    -10.095644    47.206326    -9.409697    -8.399267    29.462679    4.520876    -9.976835    -4.784792    -17.091413    42.998657    -16.832865    20.770582    -22.293015    48.296387    0.000000    0.000000    0.000000    -10.780254    -33.876549    -9.987748    10.063416    19.361568    -15.887033    10.433187    28.660524    -17.026976    0.000000    0.000000    0.000000    
12.151474    153.992340    -117.054985    -1.489431    -6.815523    42.906349    -0.229282    -0.234190    -2.713365    -5.251685    2.538122    -0.787916    13.495992    -5.229174    -5.202715    5.625654    8.632600    -7.684520    9.659353    6.124281    -23.592976    -25.529791    20.702261    -67.687737    -16.783354    -1.668365    -86.793678    16.977034    -18.240030    -5.357851    -12.920897    -6.018095    -2.955352    24.030544    -24.309906    64.008614    -9.478399    -10.120370    47.220825    -9.318789    -8.454945    29.583677    4.584048    -9.980233    -4.833908    -17.031944    42.871529    -16.872169    20.729721    -22.169807    48.347862    0.000000    0.000000    0.000000    -11.123662    -33.653313    -10.209749    10.070093    19.598988    -16.030205    10.128380    28.516314    -17.131130    0.000000    0.000000    0.000000    
11.991415    154.086990    -117.154930    -1.534776    -6.902587    42.813683    -0.177557    -0.239177    -2.667259    -5.213803    2.496925    -0.775247    13.501636    -5.184196    -5.192630    5.595617    8.664411    -7.673333    9.650350    6.147758    -23.570198    -25.493549    20.711792    -67.645645    -16.800091    -1.706666    -86.885635    17.110455    -18.314594    -5.298301    -12.946144    -6.022470    -2.916449    24.006769    -24.282200    63.959541    -9.514902    -10.016944    47.189289    -9.452053    -8.366477    29.506420    4.660651    -9.952458    -4.891925    -16.959888    42.745213    -16.921646    20.696817    -22.049948    48.407364    0.000000    0.000000    0.000000    -11.441283    -33.404331    -10.411186    10.086992    19.826769    -16.004667    9.848553    28.361834    -17.309511    0.000000    0.000000    0.000000    
11.837407    154.173447    -117.259834    -1.582174    -6.970227    42.718002    -0.101351    -0.294310    -2.607765    -5.257721    2.524503    -0.753226    13.592108    -5.172305    -5.165184    5.518991    8.690229    -7.667520    9.701977    6.094374    -23.564247    -25.542017    20.685505    -67.584427    -16.767569    -1.669083    -86.850418    16.922050    -18.247341    -5.418113    -12.892153    -6.016741    -2.900914    23.964441    -24.307095    63.940769    -9.487175    -10.006207    47.166790    -9.446472    -8.376220    29.594017    4.720518    -9.945477    -4.984894    -16.920963    42.618538    -16.930449    20.671595    -21.928509    48.480450    0.000000    0.000000    0.000000    -11.777948    -33.163086    -10.680392    10.113635    20.065084    -15.991505    9.517180    28.258766    -17.354488    0.000000    0.000000    0.000000    
11.691430    154.254333    -117.372444    -1.610244    -7.025506    42.624363    -0.034114    -0.299006    -2.572227    -5.288030    2.496645    -0.742065    13.558790    -5.156352    -5.143976    5.571289    8.723475    -7.635085    9.727685    6.084808    -23.492117    -25.519260    20.689255    -67.590340    -16.900774    -1.659842    -86.930138    17.480663    -18.390024    -5.277044    -12.884932    -5.989564    -2.882983    23.909346    -24.279297    63.928455    -9.488990    -10.100873    47.135906    -9.462643    -8.445968    29.230818    4.750653    -9.933454    -5.096169    -16.881346    42.493492    -16.920404    20.770041    -21.737314    48.544792    0.000000    0.000000    0.000000    -12.134290    -32.922977    -10.921839    10.065455    20.348494    -15.724461    9.457629    28.083364    -17.559170    0.000000    0.000000    0.000000    
11.544829    154.339783    -117.483231    -1.640361    -7.070104    42.516243    -0.000603    -0.306297    -2.524004    -5.272794    2.432637    -0.729311    13.570519    -5.136291    -5.122175    5.534228    8.815257    -7.619211    9.708356    6.063488    -23.484142    -25.606670    20.632782    -67.471931    -16.861414    -1.594662    -86.906227    17.087053    -18.272606    -5.315526    -12.892868    -5.992829    -2.834815    23.901709    -24.251554    63.899803    -9.510165    -10.132172    47.135334    -9.275207    -8.441856    29.489977    4.776998    -9.935179    -5.143404    -16.803177    42.391769    -16.949242    20.643465    -21.657192    48.583248    0.000000    0.000000    0.000000    -12.471018    -32.658638    -11.109485    10.118501    20.490368    -15.864977    9.001187    28.093243    -17.413450    0.000000    0.000000    0.000000    
11.397459    154.423203    -117.579163    -1.664671    -7.121681    42.404045    0.038861    -0.308950    -2.465610    -5.278216    2.400943    -0.711256    13.623968    -5.144953    -5.072444    5.467756    8.888429    -7.586841    9.719818    6.048442    -23.432920    -25.611706    20.592346    -67.460167    -16.951866    -1.535622    -86.910789    17.280884    -18.310574    -5.309338    -12.869296    -5.988414    -2.829630    23.901157    -24.265827    63.912537    -9.444944    -10.078903    47.123371    -9.493090    -8.450074    29.205482    4.809048    -9.914890    -5.223283    -16.751684    42.259911    -16.950705    20.624865    -21.523033    48.655643    0.000000    0.000000    0.000000    -12.773303    -32.391594    -11.292558    10.066051    20.679319    -15.734640    8.736210    28.094673    -17.356619    0.000000    0.000000    0.000000    
